<?xml version="1.0" encoding="iso-8859-1"?>
<!-- Generator: Adobe Illustrator 21.0.2, SVG Export Plug-In . SVG Version: 6.00 Build 0)  -->
<svg xmlns="http://www.w3.org/2000/svg" xmlns:xlink="http://www.w3.org/1999/xlink" version="1.1" id="Layer_1" x="0px" y="0px" viewBox="0 0 40 40" style="enable-background:new 0 0 40 40;" xml:space="preserve">
<g>
	<polygon style="fill:#FFFFFF;" points="6.5,37.5 6.5,2.5 24.793,2.5 33.5,11.207 33.5,37.5  "/>
	<g>
		<path style="fill:#4788C7;" d="M24.586,3L33,11.414V37H7V3H24.586 M25,2H6v36h28V11L25,2L25,2z"/>
	</g>
</g>
<g>
	<polygon style="fill:#DFF0FE;" points="24.5,11.5 24.5,2.5 24.793,2.5 33.5,11.207 33.5,11.5  "/>
	<g>
		<path style="fill:#4788C7;" d="M25,3.414L32.586,11H25V3.414 M25,2h-1v10h10v-1L25,2L25,2z"/>
	</g>
</g>
<g>
	<path style="fill:#98CCFD;" d="M15.85,17H25v9.15l-2.614-2.614c-7.189,7.189-2.614,10.457-2.614,10.457s-9.803-5.882-1.307-14.378   L15.85,17z"/>
</g>
</svg>
