<?xml version="1.0" standalone="no"?>
<!DOCTYPE svg PUBLIC "-//W3C//DTD SVG 20010904//EN"
 "http://www.w3.org/TR/2001/REC-SVG-20010904/DTD/svg10.dtd">
<svg version="1.0" xmlns="http://www.w3.org/2000/svg"
 width="512.000000pt" height="512.000000pt" viewBox="0 0 512.000000 512.000000"
 preserveAspectRatio="xMidYMid meet">
<metadata>
Created by potrace 1.11, written by Peter Selinger 2001-2013
</metadata>
<g transform="translate(0.000000,512.000000) scale(0.100000,-0.100000)"
fill="#000000" stroke="none">
<path d="M1093 4983 c-46 -16 -104 -68 -131 -117 -15 -26 -17 -69 -20 -293
l-3 -263 -65 0 -64 0 0 -410 0 -410 65 0 65 0 1 -1592 c0 -876 2 -1603 5
-1616 7 -40 42 -99 76 -127 74 -63 -49 -59 1688 -60 1501 -1 1588 0 1634 17
62 22 121 78 143 137 16 42 17 172 17 1976 l1 1930 -53 3 c-48 3 -52 1 -53
-20 0 -13 0 -876 0 -1918 0 -1348 -3 -1905 -11 -1930 -12 -38 -39 -67 -76 -81
-13 -5 -692 -9 -1587 -9 -1729 0 -1620 -4 -1660 63 -19 31 -20 71 -20 1630 l0
1597 981 0 981 0 0 410 0 410 -981 0 -981 0 0 238 c1 130 5 248 9 262 12 35
64 80 95 81 14 1 604 2 1311 3 707 1 1290 4 1295 8 6 3 10 26 9 50 l-1 43
-1314 2 c-1145 1 -1319 0 -1356 -14z m403 -850 c1 -33 -2 -43 -15 -44 -9 -1
-65 -2 -126 -4 -60 -1 -116 -3 -123 -3 -9 -2 -11 -20 -9 -64 l2 -63 95 -2 c52
-1 105 -2 118 -2 20 -1 22 -6 20 -46 -1 -41 -4 -45 -27 -46 -14 0 -66 -1 -116
-2 l-90 -2 -1 -113 c-1 -62 -3 -114 -5 -116 -6 -6 -39 -8 -76 -7 l-33 1 0 280
0 280 192 -2 192 -3 2 -42z m204 -233 c0 -242 -2 -280 -15 -281 -19 -1 -71 -1
-87 0 -10 1 -13 64 -13 281 l0 280 58 0 57 0 0 -280z m226 55 c1 -121 2 -226
3 -233 1 -10 26 -13 104 -12 56 1 119 1 140 1 l37 -1 0 -45 c0 -42 -2 -45 -27
-46 -31 -1 -290 -1 -340 0 l-33 1 0 273 c0 151 3 276 6 280 3 3 29 5 57 4 l52
-2 1 -220z m782 178 l-3 -48 -150 0 -150 0 -1 -62 -1 -63 142 0 141 0 1 -37
c0 -21 -3 -43 -7 -48 -5 -6 -56 -10 -127 -9 -65 1 -125 0 -134 -2 -13 -4 -16
-19 -16 -79 0 -50 4 -75 11 -74 6 1 77 1 159 0 l147 -1 -2 -45 c-1 -41 -3 -45
-27 -46 -14 0 -110 -1 -213 -2 l-188 -2 0 283 0 282 210 0 211 0 -3 -47z"/>
<path d="M3854 4623 l1 -368 318 -1 c189 0 317 3 317 8 0 8 -100 129 -130 158
-3 3 -32 36 -65 75 -33 38 -74 85 -92 105 -17 19 -41 46 -53 60 -131 153 -286
329 -291 329 -3 1 -6 -164 -5 -366z"/>
</g>
</svg>
